<?xml version="1.0" encoding="UTF-8" standalone="no"?>
<!DOCTYPE svg PUBLIC "-//W3C//DTD SVG 1.1//EN" "http://www.w3.org/Graphics/SVG/1.1/DTD/svg11.dtd">
<svg width="100%" height="100%" viewBox="0 0 1081 1080" version="1.1" xmlns="http://www.w3.org/2000/svg" xmlns:xlink="http://www.w3.org/1999/xlink" xml:space="preserve" xmlns:serif="http://www.serif.com/" style="fill-rule:evenodd;clip-rule:evenodd;stroke-linejoin:round;stroke-miterlimit:2;">
    <g transform="matrix(1,0,0,1,-1214,0)">
        <g id="Artboard1" transform="matrix(1,0,0,1,1214.46,0)">
            <rect x="0" y="0" width="1080" height="1080" style="fill:none;"/>
            <g transform="matrix(2.26387,0,0,2.09079,-701.4,-876.456)">
                <path d="M372.419,657.741C372.419,561.493 450.56,483.351 546.808,483.351C643.057,483.351 721.198,561.493 721.198,657.741C721.198,749.172 728.609,777.504 738.411,800.297C741.374,807.24 740.864,815.339 737.059,821.782C733.254,828.225 726.678,832.124 719.614,832.124C643.527,832.13 455.305,832.13 377.954,832.13C371.249,832.13 364.958,828.616 361.073,822.698C357.188,816.781 356.188,809.193 358.391,802.335C368.135,771.962 372.419,726.375 372.419,657.741Z" style="fill:white;"/>
            </g>
            <g transform="matrix(2.90172,0,0,2.90172,-4473.93,-1158.62)">
                <circle cx="1727.74" cy="696.816" r="51.214" style="fill:white;"/>
            </g>
            <g transform="matrix(1.89306,0.101231,-0.101231,1.89306,-2789.98,-721.801)">
                <path d="M1527.17,441.203C1523.04,437.066 1521.83,430.827 1524.14,425.449C1543.62,380.513 1574.74,346.586 1617.16,323.344C1622.72,320.327 1629.6,321.327 1634.08,325.801C1637.15,328.843 1640.8,332.491 1644.32,336.016C1647.48,339.176 1648.99,343.631 1648.38,348.06C1647.78,352.489 1645.15,356.383 1641.26,358.587C1607.61,377.769 1580.6,407.556 1560.4,447.818C1558.35,451.92 1554.44,454.786 1549.91,455.519C1545.38,456.252 1540.78,454.764 1537.53,451.519C1533.9,447.93 1530.2,444.23 1527.17,441.203Z" style="fill:white;"/>
            </g>
            <g transform="matrix(-1.89577,0,0,1.89577,3911.78,-558.314)">
                <path d="M1527.17,441.203C1523.04,437.066 1521.83,430.827 1524.14,425.449C1543.62,380.513 1574.74,346.586 1617.16,323.344C1622.72,320.327 1629.6,321.327 1634.08,325.801C1637.15,328.843 1640.8,332.491 1644.32,336.016C1647.48,339.176 1648.99,343.631 1648.38,348.06C1647.78,352.489 1645.15,356.383 1641.26,358.587C1607.61,377.769 1580.6,407.556 1560.4,447.818C1558.35,451.92 1554.44,454.786 1549.91,455.519C1545.38,456.252 1540.78,454.764 1537.53,451.519C1533.9,447.93 1530.2,444.23 1527.17,441.203Z" style="fill:white;"/>
            </g>
        </g>
    </g>
</svg>
