<?xml version="1.0" encoding="UTF-8" standalone="no"?>
<!DOCTYPE svg PUBLIC "-//W3C//DTD SVG 1.1//EN" "http://www.w3.org/Graphics/SVG/1.1/DTD/svg11.dtd">
<svg width="100%" height="100%" viewBox="0 0 1080 1080" version="1.1" xmlns="http://www.w3.org/2000/svg" xmlns:xlink="http://www.w3.org/1999/xlink" xml:space="preserve" xmlns:serif="http://www.serif.com/" style="fill-rule:evenodd;clip-rule:evenodd;stroke-linejoin:round;stroke-miterlimit:2;">
    <rect id="Artboard1" x="0" y="0" width="1080" height="1080" style="fill:none;"/>
    <g id="Artboard11" serif:id="Artboard1">
        <g transform="matrix(1.64337,0,0,1.78501,-286.751,-388.597)">
            <path d="M203.028,365.741C195.158,360.903 190.431,352.766 190.431,344.053L190.431,344.053C190.431,328.257 204.34,315.451 221.498,315.451C327.115,315.451 671.656,315.451 777.969,315.451C795.382,315.451 809.499,328.448 809.499,344.48L809.499,350.746C809.499,355.804 806.763,360.529 802.203,363.349C763.332,387.384 580.136,500.657 520.426,537.576C509.011,544.634 494.097,544.653 482.661,537.624C424.838,502.082 251.323,395.426 203.028,365.741Z" style="fill:white;"/>
        </g>
        <g transform="matrix(1.64337,0,0,1.78501,-286.751,-388.597)">
            <path d="M756.641,443.126C767.048,436.691 780.461,436.062 791.524,441.491C802.588,446.92 809.499,457.521 809.499,469.063L809.499,648.671C809.499,656.957 805.924,664.904 799.559,670.764C793.195,676.623 784.563,679.915 775.562,679.915L224.368,679.915C205.625,679.915 190.431,665.926 190.431,648.671L190.431,468.031C190.431,456.505 197.325,445.914 208.365,440.479C219.406,435.043 232.8,435.646 243.212,442.046C313.945,485.523 435.989,560.541 482.661,589.229C494.097,596.258 509.011,596.239 520.426,589.181C566.601,560.631 686.624,486.418 756.641,443.126Z" style="fill:white;"/>
        </g>
    </g>
</svg>
