<?xml version="1.0" encoding="UTF-8" standalone="no"?>
<!DOCTYPE svg PUBLIC "-//W3C//DTD SVG 1.1//EN" "http://www.w3.org/Graphics/SVG/1.1/DTD/svg11.dtd">
<svg width="100%" height="100%" viewBox="0 0 1080 1080" version="1.1" xmlns="http://www.w3.org/2000/svg" xmlns:xlink="http://www.w3.org/1999/xlink" xml:space="preserve" xmlns:serif="http://www.serif.com/" style="fill-rule:evenodd;clip-rule:evenodd;stroke-linejoin:round;stroke-miterlimit:2;">
    <g transform="matrix(1.73902,0,0,1.88891,-329.449,-423.746)">
        <path d="M198.61,369.34C193.5,366.199 190.431,360.916 190.431,355.259L190.431,332.383C190.431,327.892 192.369,323.586 195.818,320.411C199.267,317.235 203.944,315.451 208.822,315.451L791.108,315.451C795.986,315.451 800.664,317.235 804.113,320.411C807.561,323.586 809.499,327.892 809.499,332.383L809.499,356.128C809.499,361.769 806.448,367.039 801.362,370.184C758.528,396.669 559.354,519.821 511.784,549.234C505.598,553.059 497.516,553.07 491.319,549.26C443.397,519.804 241.825,395.903 198.61,369.34Z" style="fill:white;"/>
    </g>
    <g transform="matrix(1.73902,0,0,1.88891,-329.449,-423.746)">
        <path d="M780.855,416.094C786.495,412.607 793.763,412.267 799.758,415.209C805.754,418.15 809.499,423.896 809.499,430.15L809.499,662.983C809.499,667.474 807.561,671.78 804.113,674.956C800.664,678.131 795.986,679.915 791.108,679.915L208.822,679.915C198.665,679.915 190.431,672.334 190.431,662.983L190.431,429.206C190.431,422.96 194.167,417.221 200.15,414.275C206.133,411.33 213.391,411.656 219.034,415.125C285.676,456.088 448.846,556.384 491.319,582.491C497.516,586.3 505.598,586.29 511.784,582.465C553.884,556.434 714.731,456.98 780.855,416.094Z" style="fill:white;"/>
    </g>
</svg>
