<?xml version="1.0" encoding="UTF-8" standalone="no"?>
<!DOCTYPE svg PUBLIC "-//W3C//DTD SVG 1.1//EN" "http://www.w3.org/Graphics/SVG/1.1/DTD/svg11.dtd">
<svg width="100%" height="100%" viewBox="0 0 452 103" version="1.1" xmlns="http://www.w3.org/2000/svg" xmlns:xlink="http://www.w3.org/1999/xlink" xml:space="preserve" xmlns:serif="http://www.serif.com/" style="fill-rule:evenodd;clip-rule:evenodd;stroke-linejoin:round;stroke-miterlimit:2;">
    <g transform="matrix(3.34913,0,0,3.34913,-6912.97,-5177.39)">
        <path d="M2077.74,1576.48L2074.11,1576.48C2073.8,1576.48 2073.27,1576.51 2073.34,1576.17C2073.34,1576.15 2074.26,1574.57 2074.26,1574.57C2074.26,1574.57 2078.08,1568.12 2078.08,1567.96C2078.06,1567.56 2078.03,1567.48 2077.52,1567.48L2064.85,1567.48C2064.36,1567.48 2064.11,1567.27 2064.11,1566.85C2064.11,1566.65 2064.17,1566.44 2064.3,1566.21L2070.91,1554.78C2071.11,1554.43 2071.4,1554.13 2071.8,1553.88C2072.19,1553.63 2072.57,1553.51 2072.92,1553.51L2090.7,1553.51C2091.18,1553.51 2091.41,1553.72 2091.41,1554.15C2091.41,1554.34 2091.35,1554.55 2091.23,1554.78L2089.75,1557.32C2089.55,1557.67 2089.26,1557.97 2088.86,1558.22C2088.47,1558.47 2088.1,1558.59 2087.76,1558.59L2081.41,1558.59C2080.92,1558.59 2080.67,1558.38 2080.67,1557.96C2080.67,1557.76 2080.74,1557.55 2080.86,1557.32L2081.6,1556.05C2081.72,1555.82 2081.78,1555.61 2081.78,1555.42C2081.78,1554.99 2081.55,1554.78 2081.07,1554.78C2080.72,1554.78 2080.35,1554.9 2079.96,1555.15C2079.57,1555.4 2079.27,1555.7 2079.06,1556.05L2073.93,1564.94C2073.8,1565.17 2073.74,1565.38 2073.74,1565.58C2073.74,1566 2073.98,1566.21 2074.46,1566.21C2074.81,1566.21 2075.18,1566.09 2075.58,1565.84C2075.98,1565.59 2076.27,1565.29 2076.47,1564.94L2078.66,1561.13C2078.87,1560.78 2079.17,1560.48 2079.56,1560.23C2079.95,1559.98 2080.32,1559.86 2080.67,1559.86L2087.02,1559.86C2087.52,1559.86 2087.76,1560.07 2087.76,1560.5C2087.76,1560.69 2087.69,1560.9 2087.55,1561.13L2078.95,1576.05C2078.66,1576.56 2078.75,1576.48 2077.74,1576.48ZM2107.47,1553.51L2113.82,1553.51C2114.3,1553.51 2114.54,1553.72 2114.54,1554.15C2114.54,1554.34 2114.47,1554.55 2114.35,1554.78L2107.74,1566.21C2107.54,1566.56 2107.25,1566.86 2106.85,1567.11C2106.45,1567.36 2106.09,1567.48 2105.75,1567.48L2087.97,1567.48C2087.48,1567.48 2087.24,1567.27 2087.24,1566.85C2087.24,1566.65 2087.3,1566.44 2087.42,1566.21L2094.03,1554.78C2094.23,1554.43 2094.52,1554.13 2094.92,1553.88C2095.32,1553.63 2095.69,1553.51 2096.04,1553.51L2102.39,1553.51C2102.87,1553.51 2103.11,1553.72 2103.11,1554.15C2103.11,1554.34 2103.05,1554.55 2102.92,1554.78L2097.05,1564.94C2096.93,1565.17 2096.86,1565.38 2096.86,1565.58C2096.86,1566 2097.1,1566.21 2097.58,1566.21C2097.93,1566.21 2098.31,1566.09 2098.7,1565.84C2099.1,1565.59 2099.39,1565.29 2099.59,1564.94L2105.46,1554.78C2105.66,1554.43 2105.95,1554.13 2106.35,1553.88C2106.75,1553.63 2107.12,1553.51 2107.47,1553.51ZM2123.19,1561.13C2122.84,1561.13 2122.47,1561.25 2122.08,1561.5C2121.69,1561.75 2121.4,1562.05 2121.2,1562.4L2119.72,1564.94C2119.6,1565.17 2119.54,1565.38 2119.54,1565.58C2119.54,1566 2119.78,1566.21 2120.25,1566.21C2120.6,1566.21 2120.98,1566.09 2121.38,1565.84C2121.77,1565.59 2122.07,1565.29 2122.26,1564.94L2123,1563.67C2123.2,1563.32 2123.49,1563.02 2123.89,1562.77C2124.29,1562.52 2124.66,1562.4 2125.01,1562.4L2131.36,1562.4C2131.84,1562.4 2132.08,1562.61 2132.08,1563.04C2132.08,1563.23 2132.02,1563.44 2131.89,1563.67L2130.41,1566.21C2130.22,1566.56 2129.92,1566.86 2129.52,1567.11C2129.13,1567.36 2128.76,1567.48 2128.43,1567.48L2110.65,1567.48C2110.15,1567.48 2109.91,1567.27 2109.91,1566.85C2109.91,1566.65 2109.97,1566.44 2110.09,1566.21L2116.71,1554.78C2116.9,1554.43 2117.2,1554.13 2117.59,1553.88C2117.99,1553.63 2118.36,1553.51 2118.72,1553.51L2136.49,1553.51C2136.97,1553.51 2137.21,1553.72 2137.21,1554.15C2137.21,1554.34 2137.15,1554.55 2137.02,1554.78L2134.09,1559.86C2133.89,1560.21 2133.6,1560.51 2133.2,1560.76C2132.8,1561.01 2132.43,1561.13 2132.08,1561.13L2123.19,1561.13ZM2124.86,1556.05L2123.4,1558.59C2123.26,1558.82 2123.19,1559.03 2123.19,1559.23C2123.19,1559.65 2123.43,1559.86 2123.93,1559.86C2124.28,1559.86 2124.65,1559.74 2125.04,1559.49C2125.43,1559.24 2125.73,1558.94 2125.94,1558.59L2127.39,1556.05C2127.52,1555.82 2127.58,1555.61 2127.58,1555.42C2127.58,1554.99 2127.34,1554.78 2126.87,1554.78C2126.51,1554.78 2126.14,1554.9 2125.75,1555.15C2125.37,1555.4 2125.07,1555.7 2124.86,1556.05ZM2156.55,1558.59L2150.2,1558.59C2149.71,1558.59 2149.46,1558.38 2149.46,1557.96C2149.46,1557.76 2149.52,1557.55 2149.64,1557.32L2150.39,1556.05C2150.51,1555.82 2150.57,1555.61 2150.57,1555.42C2150.57,1554.99 2150.33,1554.78 2149.86,1554.78C2149.5,1554.78 2149.13,1554.9 2148.74,1555.15C2148.36,1555.4 2148.06,1555.7 2147.85,1556.05L2146.39,1558.59C2146.25,1558.82 2146.18,1559.03 2146.18,1559.23C2146.18,1559.65 2146.43,1559.86 2146.92,1559.86L2155.81,1559.86C2156.3,1559.86 2156.55,1560.07 2156.55,1560.5C2156.55,1560.69 2156.48,1560.9 2156.34,1561.13L2153.4,1566.21C2153.21,1566.56 2152.91,1566.86 2152.51,1567.11C2152.12,1567.36 2151.75,1567.48 2151.42,1567.48L2133.64,1567.48C2133.14,1567.48 2132.9,1567.27 2132.9,1566.85C2132.9,1566.65 2132.96,1566.44 2133.08,1566.21L2134.56,1563.67C2134.76,1563.32 2135.05,1563.02 2135.45,1562.77C2135.85,1562.52 2136.22,1562.4 2136.57,1562.4L2142.92,1562.4C2143.4,1562.4 2143.64,1562.61 2143.64,1563.04C2143.64,1563.23 2143.58,1563.44 2143.45,1563.67L2142.71,1564.94C2142.59,1565.17 2142.53,1565.38 2142.53,1565.58C2142.53,1566 2142.76,1566.21 2143.24,1566.21C2143.59,1566.21 2143.97,1566.09 2144.37,1565.84C2144.76,1565.59 2145.06,1565.29 2145.25,1564.94L2146.73,1562.4C2146.86,1562.17 2146.92,1561.96 2146.92,1561.77C2146.92,1561.34 2146.67,1561.13 2146.18,1561.13L2137.29,1561.13C2136.81,1561.13 2136.57,1560.92 2136.57,1560.5C2136.57,1560.3 2136.64,1560.09 2136.76,1559.86L2139.7,1554.78C2139.89,1554.43 2140.19,1554.13 2140.58,1553.88C2140.98,1553.63 2141.35,1553.51 2141.71,1553.51L2159.49,1553.51C2159.96,1553.51 2160.2,1553.72 2160.2,1554.15C2160.2,1554.34 2160.14,1554.55 2160.01,1554.78L2158.53,1557.32C2158.34,1557.67 2158.04,1557.97 2157.65,1558.22C2157.25,1558.47 2156.88,1558.59 2156.55,1558.59ZM2179.54,1558.59L2173.19,1558.59C2172.7,1558.59 2172.45,1558.38 2172.45,1557.96C2172.45,1557.76 2172.51,1557.55 2172.63,1557.32L2173.38,1556.05C2173.5,1555.82 2173.56,1555.61 2173.56,1555.42C2173.56,1554.99 2173.32,1554.78 2172.85,1554.78C2172.49,1554.78 2172.12,1554.9 2171.74,1555.15C2171.35,1555.4 2171.05,1555.7 2170.84,1556.05L2169.38,1558.59C2169.24,1558.82 2169.17,1559.03 2169.17,1559.23C2169.17,1559.65 2169.41,1559.86 2169.91,1559.86L2178.8,1559.86C2179.29,1559.86 2179.54,1560.07 2179.54,1560.5C2179.54,1560.69 2179.47,1560.9 2179.33,1561.13L2176.39,1566.21C2176.2,1566.56 2175.9,1566.86 2175.51,1567.11C2175.11,1567.36 2174.74,1567.48 2174.41,1567.48L2156.63,1567.48C2156.13,1567.48 2155.89,1567.27 2155.89,1566.85C2155.89,1566.65 2155.95,1566.44 2156.07,1566.21L2157.55,1563.67C2157.75,1563.32 2158.04,1563.02 2158.44,1562.77C2158.84,1562.52 2159.21,1562.4 2159.57,1562.4L2165.91,1562.4C2166.39,1562.4 2166.63,1562.61 2166.63,1563.04C2166.63,1563.23 2166.57,1563.44 2166.44,1563.67L2165.7,1564.94C2165.58,1565.17 2165.52,1565.38 2165.52,1565.58C2165.52,1566 2165.76,1566.21 2166.23,1566.21C2166.59,1566.21 2166.96,1566.09 2167.36,1565.84C2167.75,1565.59 2168.05,1565.29 2168.24,1564.94L2169.72,1562.4C2169.85,1562.17 2169.91,1561.96 2169.91,1561.77C2169.91,1561.34 2169.66,1561.13 2169.17,1561.13L2160.28,1561.13C2159.8,1561.13 2159.57,1560.92 2159.57,1560.5C2159.57,1560.3 2159.63,1560.09 2159.75,1559.86L2162.69,1554.78C2162.88,1554.43 2163.18,1554.13 2163.57,1553.88C2163.97,1553.63 2164.35,1553.51 2164.7,1553.51L2182.48,1553.51C2182.95,1553.51 2183.19,1553.72 2183.19,1554.15C2183.19,1554.34 2183.13,1554.55 2183.01,1554.78L2181.52,1557.32C2181.33,1557.67 2181.03,1557.97 2180.64,1558.22C2180.24,1558.47 2179.87,1558.59 2179.54,1558.59ZM2192.71,1557.56L2187.23,1567.07C2186.92,1567.47 2186.77,1567.5 2185.98,1567.5L2179.36,1567.5C2178.87,1567.49 2178.89,1567.13 2178.89,1566.86C2178.89,1566.35 2179.02,1565.88 2179.28,1565.43L2189.83,1547.16C2190.02,1546.81 2190.32,1546.51 2190.72,1546.26C2191.11,1546.02 2191.49,1545.89 2191.84,1545.89L2198.19,1545.89C2198.67,1545.89 2198.91,1546.1 2198.91,1546.53C2198.91,1546.72 2198.84,1546.93 2198.72,1547.16L2195.7,1552.38C2195.57,1552.6 2195.45,1552.89 2195.45,1553.08C2195.45,1553.5 2195.21,1553.51 2196.17,1553.51C2196.22,1553.51 2198.22,1553.51 2198.22,1553.51C2198.22,1553.51 2198.62,1553.46 2198.59,1553.75C2198.57,1554.01 2197.34,1555.94 2196.88,1556.1C2196.68,1556.17 2196.14,1556.19 2196.14,1556.19C2196.14,1556.19 2194.59,1556.19 2194.46,1556.19C2194.11,1556.19 2193.94,1556.28 2193.55,1556.53C2193.17,1556.78 2192.92,1557.2 2192.71,1557.56Z" style="fill:white;"/>
    </g>
</svg>
