<?xml version="1.0" encoding="UTF-8" standalone="no"?><!DOCTYPE svg PUBLIC "-//W3C//DTD SVG 1.1//EN" "http://www.w3.org/Graphics/SVG/1.1/DTD/svg11.dtd"><svg width="100%" height="100%" viewBox="0 0 31688 31688" version="1.1" xmlns="http://www.w3.org/2000/svg" xmlns:xlink="http://www.w3.org/1999/xlink" xml:space="preserve" xmlns:serif="http://www.serif.com/" style="fill-rule:evenodd;clip-rule:evenodd;stroke-linejoin:round;stroke-miterlimit:2;"><g><path d="M4319.5,25886.6l92.621,261.483c-11.863,-29.933 -45.746,-121.425 -92.621,-261.483Zm3665.28,-5926c162.65,-1405.12 714.983,-2191.83 1755.83,-2998.3c1489.26,-1092.24 3349.58,-474.396 3349.58,-474.396l0,-3665.28c452.259,-12.058 904.7,15.913 1352.03,83.584l-0.001,4716.87c0.001,0 -1859.75,-617.841 -3349.01,474.963c-1040.28,805.908 -1593.75,1593.18 -1755.83,2998.3c-5.083,762.987 132.15,1760.35 764.117,2622.74c-156.25,-83.587 -315.513,-178.841 -477.788,-285.77c-1392.12,-975.334 -1645.7,-2438.62 -1638.92,-3472.69l0,-0.021Zm14138.7,-13915.1c-1024.47,-1171.31 -1411.89,-2353.91 -1551.95,-3184.67l1288.78,0c0,0 -256.966,2178.27 1615.77,4320.38l25.979,28.8c-504.733,-331.254 -967.612,-722.267 -1378.58,-1164.53l0,0.021Zm6208.38,3320.78l0,4621.96c0,0 -1644.57,-67.204 -2861.62,-390.246c-1699.35,-451.808 -2791.6,-1144.76 -2791.6,-1144.76c-0,-0 -754.517,-494.167 -815.509,-528.617l0,9544.42c0,531.437 -139.496,1858.62 -564.758,2965.54c-555.158,1448.04 -1411.9,2398.53 -1569.46,2592.8c0,-0 -1041.98,1284.82 -2880.26,2150.03c-1657,780.496 -3111.82,760.729 -3546.68,780.496c-0,-0 -2514.86,103.916 -4777.83,-1430.53c-489.358,-338.212 -946.15,-721.266 -1364.46,-1144.2l11.296,8.471c2263.55,1534.45 4777.83,1430.53 4777.83,1430.53c435.429,-19.766 1890.24,0 3546.68,-780.491c1836.59,-865.209 2880.26,-2150.03 2880.26,-2150.03c155.871,-194.275 1016.56,-1144.76 1569.46,-2593.37c424.13,-1106.36 564.755,-2434.11 564.755,-2965.54l-0,-9543.29c60.995,35.017 814.945,529.18 814.945,529.18c0,-0.001 1092.81,693.52 2792.16,1144.76c1217.62,323.042 2861.62,390.25 2861.62,390.25l-0,-3621.79c562.5,131.588 1041.98,167.167 1353.16,134.413l0.004,0.021Z" style="fill:#fff;fill-opacity:0.74;fill-rule:nonzero;"/></g><path d="M26979.2,9231.92l0,3620.66c0,0 -1644.01,-67.208 -2861.63,-390.25c-1699.35,-451.804 -2792.16,-1144.76 -2792.16,-1144.76c-0,-0 -753.955,-494.163 -814.946,-529.18l-0,9545.54c-0,531.438 -139.496,1859.18 -564.759,2965.54c-555.158,1448.6 -1411.89,2399.09 -1569.46,2593.37c-0,-0 -1042.54,1284.83 -2880.26,2150.03c-1656.43,780.492 -3111.25,760.729 -3546.68,780.492c0,-0 -2514.3,103.916 -4777.83,-1430.53l-11.296,-8.47c-238.983,-241.442 -463.937,-496.38 -673.754,-763.555c-722.325,-918.858 -1165.1,-2005.45 -1276.35,-2315.5c-0.192,-1.312 -0.192,-2.641 -0,-3.954c-179.029,-538.779 -555.154,-1832.64 -503.763,-3085.83c90.925,-2211.03 836.404,-3568.14 1033.5,-3908.12c522,-927.113 1200.95,-1756.65 2006.58,-2451.61c710.929,-599.691 1516.77,-1076.86 2384.41,-1411.89c937.946,-393.367 1942.38,-604.221 2959.33,-621.234l0,3665.28c0,0 -1860.31,-615.583 -3349.01,474.396c-1040.85,806.475 -1593.18,1593.18 -1755.83,2998.3c-6.78,1034.07 246.795,2497.36 1637.8,3473.26c162.275,107.305 321.534,202.559 477.784,285.767c243.004,329.579 538.783,616.767 875.375,849.963c1358.81,897.4 2497.36,960.087 3953.3,377.258c970.817,-389.683 1701.61,-1267.88 2040.47,-2240.96c212.916,-607.68 210.091,-1219.31 210.091,-1851.84l0,-17993.2l3388.55,0c140.058,830.759 527.483,2013.36 1551.95,3184.67c410.963,442.262 873.842,833.275 1378.57,1164.53c149.096,160.958 911.521,956.7 1890.25,1445.22c506.071,252.512 1039.51,445.991 1589.79,576.616l-0.017,-0.016Z" style="fill:#fff;fill-rule:nonzero;"/><path d="M10130.8,13443.9c-867.641,335.033 -1673.48,812.2 -2384.41,1411.89c-805.888,696.537 -1484.67,1527.82 -2006.02,2456.7c-197.1,338.854 -942.579,1697.1 -1033.51,3908.12c-51.392,1253.19 324.737,2547.05 503.767,3085.83c-0.196,1.312 -0.196,2.642 -0,3.954c112.95,307.229 554.025,1393.82 1276.35,2315.5c209.82,267.175 434.775,522.113 673.758,763.554c-765.7,-529.562 -1448.6,-1169.83 -2026.35,-1899.85c-716.113,-910.954 -1157.75,-1986.25 -1272.97,-2303.64c-0.133,-2.259 -0.133,-4.521 0,-6.775l0,-3.954c-179.591,-538.213 -556.85,-1832.64 -504.329,-3087.53c90.929,-2211.03 836.409,-3568.14 1033.51,-3908.12c521.192,-928.983 1200,-1760.29 2006.02,-2456.69c710.78,-599.904 1516.65,-1077.09 2384.4,-1411.9c541.267,-224.575 1105.13,-390.25 1681.85,-494.163c869.129,-151.716 1756.83,-164.87 2630.08,-38.966l-0.001,1044.8c-1017.9,16.654 -2023.33,227.512 -2962.15,621.233Z" style="fill:#fff;fill-opacity:0.74;fill-rule:nonzero;"/><path d="M20571.5,2860.89l-3388.54,-0l0,17993.8c0,632.525 0,1242.47 -210.091,1851.84c-342.242,972.513 -1070.22,1850.71 -2040.47,2240.4c-1456.51,585.087 -2595.06,520.142 -3953.3,-377.258c-337.171,-232.15 -633.713,-518.384 -877.633,-847.138c1157.19,617.279 2192.95,606.55 3476.08,91.492c969.687,-389.684 1698.79,-1267.88 2039.9,-2240.96c213.475,-607.679 210.654,-1219.31 210.654,-1851.28l0,-17997.1l4679,0c0,0 -52.525,447.288 64.379,1136.29l0.017,-0.012Zm6407.75,5369.71l0,1001.32c-549.317,-130.834 -1081.8,-324.305 -1586.97,-576.617c-978.725,-488.517 -1741.15,-1284.26 -1890.24,-1445.22c173.009,113.592 352.534,216.929 537.65,309.488c1189.94,594.125 2361.82,771.458 2939.56,711.029Z" style="fill:#fff;fill-opacity:0.74;fill-rule:nonzero;"/></svg>