<?xml version="1.0" encoding="UTF-8" standalone="no"?>
<!DOCTYPE svg PUBLIC "-//W3C//DTD SVG 1.1//EN" "http://www.w3.org/Graphics/SVG/1.1/DTD/svg11.dtd">
<svg width="100%" height="100%" viewBox="0 0 500 500" version="1.1" xmlns="http://www.w3.org/2000/svg" xmlns:xlink="http://www.w3.org/1999/xlink" xml:space="preserve" xmlns:serif="http://www.serif.com/" style="fill-rule:evenodd;clip-rule:evenodd;stroke-linejoin:round;stroke-miterlimit:2;">
    <g transform="matrix(1.4107,0,0,1.4107,-102.676,-102.675)">
        <rect x="173.91" y="152.17" width="65.22" height="86.96" style="fill:white;"/>
    </g>
    <g transform="matrix(1.4107,0,0,1.4107,-102.676,-102.675)">
        <rect x="260.87" y="152.17" width="65.22" height="86.96" style="fill:white;"/>
    </g>
    <g transform="matrix(1.4107,0,0,1.4107,-102.676,-102.675)">
        <rect x="347.83" y="86.96" width="65.22" height="152.17" style="fill:white;"/>
    </g>
    <g transform="matrix(1.4107,0,0,1.4107,-102.676,-102.675)">
        <path d="M173.91,260.87L173.91,326.09L347.83,326.09L347.83,347.83L152.17,347.83L152.17,86.96L86.96,86.96L86.96,413.04L413.04,413.04L413.04,260.87L173.91,260.87Z" style="fill:white;fill-rule:nonzero;"/>
    </g>
</svg>
