<?xml version="1.0" encoding="UTF-8" standalone="no"?>
<!DOCTYPE svg PUBLIC "-//W3C//DTD SVG 1.1//EN" "http://www.w3.org/Graphics/SVG/1.1/DTD/svg11.dtd">
<svg width="100%" height="100%" viewBox="0 0 1080 1080" version="1.1" xmlns="http://www.w3.org/2000/svg" xmlns:xlink="http://www.w3.org/1999/xlink" xml:space="preserve" xmlns:serif="http://www.serif.com/" style="fill-rule:evenodd;clip-rule:evenodd;stroke-linejoin:round;stroke-miterlimit:2;">
    <g transform="matrix(67.5,0,0,67.5,0,0)">
        <path d="M13.545,2.907C12.508,2.431 11.413,2.091 10.288,1.896C10.267,1.892 10.246,1.903 10.236,1.921C10.095,2.171 9.939,2.498 9.83,2.754C8.618,2.57 7.384,2.57 6.172,2.754C6.051,2.469 5.913,2.19 5.76,1.921C5.75,1.903 5.729,1.892 5.708,1.896C4.583,2.09 3.488,2.43 2.451,2.907C2.442,2.91 2.435,2.917 2.43,2.925C0.356,6.024 -0.213,9.047 0.066,12.032C0.068,12.047 0.075,12.059 0.087,12.069C1.295,12.963 2.646,13.646 4.082,14.089C4.103,14.096 4.126,14.088 4.138,14.07C4.447,13.65 4.719,13.207 4.956,12.741C4.966,12.721 4.962,12.697 4.946,12.682L4.928,12.671C4.497,12.505 4.08,12.306 3.68,12.076C3.657,12.063 3.648,12.034 3.66,12.01L3.675,11.991C3.76,11.928 3.842,11.863 3.923,11.796C3.937,11.784 3.957,11.782 3.974,11.789C6.593,12.985 9.428,12.985 12.015,11.789C12.033,11.781 12.053,11.784 12.068,11.796C12.149,11.863 12.231,11.928 12.316,11.991C12.33,12 12.338,12.016 12.338,12.032C12.338,12.05 12.328,12.067 12.312,12.076C11.914,12.31 11.496,12.508 11.063,12.67C11.049,12.675 11.038,12.686 11.033,12.7C11.028,12.713 11.029,12.728 11.036,12.741C11.276,13.206 11.551,13.65 11.853,14.07C11.865,14.088 11.888,14.096 11.909,14.089C13.348,13.649 14.701,12.965 15.91,12.069C15.922,12.06 15.93,12.047 15.931,12.032C16.265,8.581 15.372,5.583 13.565,2.926C13.562,2.917 13.554,2.91 13.545,2.907M5.347,10.214C4.558,10.214 3.909,9.49 3.909,8.602C3.909,7.714 4.546,6.989 5.347,6.989C6.154,6.989 6.797,7.719 6.785,8.602C6.785,9.49 6.148,10.214 5.347,10.214M10.663,10.214C9.875,10.214 9.225,9.49 9.225,8.602C9.225,7.714 9.862,6.989 10.663,6.989C11.47,6.989 12.114,7.719 12.101,8.602C12.101,9.49 11.47,10.214 10.663,10.214" style="fill:white;fill-rule:nonzero;"/>
    </g>
</svg>
