<?xml version="1.0" encoding="UTF-8" standalone="no"?>
<!DOCTYPE svg PUBLIC "-//W3C//DTD SVG 1.1//EN" "http://www.w3.org/Graphics/SVG/1.1/DTD/svg11.dtd">
<svg width="100%" height="100%" viewBox="0 0 2250 2250" version="1.1" xmlns="http://www.w3.org/2000/svg" xmlns:xlink="http://www.w3.org/1999/xlink" xml:space="preserve" xmlns:serif="http://www.serif.com/" style="fill-rule:evenodd;clip-rule:evenodd;stroke-linejoin:round;stroke-miterlimit:2;">
    <g transform="matrix(2.08333,0,0,2.08333,0,0)">
        <rect id="Artboard1" x="0" y="0" width="1080" height="1080" style="fill:none;"/>
        <g id="Artboard11" serif:id="Artboard1">
            <g transform="matrix(1.64337,0,0,1.78501,-286.751,-388.597)">
                <path d="M195.408,367.372C192.299,365.461 190.431,362.246 190.431,358.803C190.431,350.805 190.431,335.835 190.431,325.754C190.431,320.064 195.442,315.451 201.622,315.451C278.013,315.451 721.917,315.451 798.308,315.451C804.489,315.451 809.499,320.064 809.499,325.754C809.499,336.057 809.499,351.508 809.499,359.661C809.499,363.094 807.642,366.301 804.547,368.214C768.589,390.448 547.811,526.959 507.782,551.709C504.018,554.037 499.1,554.043 495.329,551.725C455.018,526.947 231.675,389.664 195.408,367.372Z" style="fill:white;"/>
            </g>
            <g transform="matrix(1.64337,0,0,1.78501,-286.751,-388.597)">
                <path d="M792.069,409.161C795.501,407.039 799.924,406.831 803.572,408.622C807.22,410.412 809.499,413.908 809.499,417.714L809.499,669.612C809.499,675.302 804.489,679.915 798.308,679.915C721.917,679.915 278.013,679.915 201.622,679.915C195.442,679.915 190.431,675.302 190.431,669.612C190.431,627.977 190.431,471.762 190.431,416.81C190.431,413.01 192.704,409.517 196.345,407.725C199.986,405.933 204.402,406.131 207.836,408.242C266.936,444.569 458.31,562.201 495.329,584.956C499.1,587.274 504.018,587.267 507.782,584.94C544.506,562.233 733.369,445.456 792.069,409.161Z" style="fill:white;"/>
            </g>
        </g>
    </g>
</svg>
