<?xml version="1.0" encoding="UTF-8" standalone="no"?>
<!DOCTYPE svg PUBLIC "-//W3C//DTD SVG 1.1//EN" "http://www.w3.org/Graphics/SVG/1.1/DTD/svg11.dtd">
<svg width="100%" height="100%" viewBox="0 0 1080 1080" version="1.1" xmlns="http://www.w3.org/2000/svg" xmlns:xlink="http://www.w3.org/1999/xlink" xml:space="preserve" xmlns:serif="http://www.serif.com/" style="fill-rule:evenodd;clip-rule:evenodd;stroke-linejoin:round;stroke-miterlimit:2;">
    <g transform="matrix(1,0,0,1.08619,40.0348,-24.2482)">
        <path d="M198.61,369.34C193.5,366.199 190.431,360.916 190.431,355.259C190.431,348.853 190.431,340.069 190.431,332.383C190.431,327.892 192.369,323.586 195.818,320.411C199.267,317.235 203.944,315.451 208.822,315.451C299.715,315.451 700.216,315.451 791.108,315.451C795.986,315.451 800.664,317.235 804.113,320.411C807.561,323.586 809.499,327.892 809.499,332.383C809.499,340.344 809.499,349.516 809.499,356.128C809.499,361.769 806.448,367.039 801.362,370.184C758.528,396.669 559.354,519.821 511.784,549.234C505.598,553.059 497.516,553.07 491.319,549.26C443.397,519.804 241.825,395.903 198.61,369.34Z" style="fill:white;"/>
    </g>
    <g transform="matrix(1,0,0,1.08619,40.0348,-24.2482)">
        <path d="M780.855,416.094C786.495,412.607 793.763,412.267 799.758,415.209C805.754,418.15 809.499,423.896 809.499,430.15C809.499,489.898 809.499,617.114 809.499,662.983C809.499,667.474 807.561,671.78 804.113,674.956C800.664,678.131 795.986,679.915 791.108,679.915C700.216,679.915 299.715,679.915 208.822,679.915C198.665,679.915 190.431,672.334 190.431,662.983L190.431,429.206C190.431,422.96 194.167,417.221 200.15,414.275C206.133,411.33 213.391,411.656 219.034,415.125C285.676,456.088 448.846,556.384 491.319,582.491C497.516,586.3 505.598,586.29 511.784,582.465C553.884,556.434 714.731,456.98 780.855,416.094Z" style="fill:white;"/>
    </g>
    <g transform="matrix(1,0,0,1,25.9086,-25.6092)">
        <path d="M831.134,594.522C836.014,594.522 840.694,596.46 844.145,599.911C847.595,603.362 849.534,608.042 849.534,612.922L849.534,805.222C849.534,810.102 847.595,814.782 844.145,818.233C840.694,821.683 836.014,823.622 831.134,823.622L638.834,823.622C633.954,823.622 629.274,821.683 625.823,818.233C622.372,814.782 620.434,810.102 620.434,805.222L620.434,612.922C620.434,608.042 622.372,603.362 625.823,599.911C629.274,596.46 633.954,594.522 638.834,594.522L831.134,594.522Z" style="fill:white;"/>
        <path d="M831.134,579.522C839.992,579.522 848.487,583.041 854.751,589.304C861.015,595.568 864.534,604.063 864.534,612.922L864.534,805.222C864.534,814.08 861.015,822.576 854.751,828.839C848.487,835.103 839.992,838.622 831.134,838.622L638.834,838.622C629.975,838.622 621.48,835.103 615.216,828.839C608.953,822.576 605.434,814.08 605.434,805.222L605.434,612.922C605.434,604.063 608.953,595.568 615.216,589.304C621.48,583.041 629.975,579.522 638.834,579.522L831.134,579.522ZM831.134,594.522L638.834,594.522C633.954,594.522 629.274,596.46 625.823,599.911C622.372,603.362 620.434,608.042 620.434,612.922L620.434,805.222C620.434,810.102 622.372,814.782 625.823,818.233C629.274,821.683 633.954,823.622 638.834,823.622L831.134,823.622C836.014,823.622 840.694,821.683 844.145,818.233C847.595,814.782 849.534,810.102 849.534,805.222L849.534,612.922C849.534,608.042 847.595,603.362 844.145,599.911C840.694,596.46 836.014,594.522 831.134,594.522Z" style="fill:rgb(34,34,34);"/>
    </g>
    <g transform="matrix(0.924847,0,0,1.05276,-3.83397,17.4356)">
        <rect x="746.635" y="516.636" width="209.89" height="186.858" style="fill:none;"/>
        <clipPath id="_clip1">
            <rect x="746.635" y="516.636" width="209.89" height="186.858"/>
        </clipPath>
        <g clip-path="url(#_clip1)">
            <g transform="matrix(2.16252,0,0,1.89977,-1022.67,-486.117)">
                <path d="M818.167,561.412C853.918,561.412 882.942,590.437 882.942,626.188C882.942,661.938 853.918,690.963 818.167,690.963C782.417,690.963 753.392,661.938 753.392,626.188C753.392,590.437 782.417,561.412 818.167,561.412ZM818.167,568.912C786.556,568.912 760.892,594.577 760.892,626.188C760.892,657.799 786.556,683.463 818.167,683.463C849.778,683.463 875.442,657.799 875.442,626.188C875.442,594.577 849.778,568.912 818.167,568.912Z" style="fill:rgb(34,34,34);"/>
            </g>
            <g transform="matrix(2.87396,0,0,2.52477,-1604.75,-877.484)">
                <path d="M818.167,563.269C852.893,563.269 881.086,591.462 881.086,626.188C881.086,660.913 852.893,689.106 818.167,689.106C783.442,689.106 755.249,660.913 755.249,626.188C755.249,591.462 783.442,563.269 818.167,563.269ZM818.167,568.912C786.556,568.912 760.892,594.577 760.892,626.188C760.892,657.799 786.556,683.463 818.167,683.463C849.778,683.463 875.442,657.799 875.442,626.188C875.442,594.577 849.778,568.912 818.167,568.912Z" style="fill:rgb(34,34,34);"/>
            </g>
            <g transform="matrix(1.50755,0,0,1.32438,-486.792,-125.814)">
                <path d="M818.167,558.154C855.716,558.154 886.201,588.639 886.201,626.188C886.201,663.736 855.716,694.221 818.167,694.221C780.619,694.221 750.134,663.736 750.134,626.188C750.134,588.639 780.619,558.154 818.167,558.154ZM818.167,568.912C786.556,568.912 760.892,594.577 760.892,626.188C760.892,657.799 786.556,683.463 818.167,683.463C849.778,683.463 875.442,657.799 875.442,626.188C875.442,594.577 849.778,568.912 818.167,568.912Z" style="fill:rgb(34,34,34);"/>
            </g>
            <g transform="matrix(0.798547,0,0,0.701522,93.2893,264.21)">
                <path d="M818.167,548.602C860.988,548.602 895.753,583.367 895.753,626.188C895.753,669.008 860.988,703.773 818.167,703.773C775.347,703.773 740.582,669.008 740.582,626.188C740.582,583.367 775.347,548.602 818.167,548.602ZM818.167,568.912C786.556,568.912 760.892,594.577 760.892,626.188C760.892,657.799 786.556,683.463 818.167,683.463C849.778,683.463 875.442,657.799 875.442,626.188C875.442,594.577 849.778,568.912 818.167,568.912Z" style="fill:rgb(34,34,34);"/>
            </g>
            <g transform="matrix(0.203363,0,0,0.178654,580.249,591.623)">
                <circle cx="818.167" cy="626.188" r="57.275" style="fill:rgb(34,34,34);"/>
                <path d="M818.167,489.159L845.71,491.946L871.539,499.971L894.838,512.622L915.053,529.302L931.733,549.517L944.384,572.816L952.409,598.645L955.196,626.188L952.409,653.73L944.384,679.56L931.733,702.859L915.053,723.073L894.838,739.753L871.539,752.404L845.71,760.429L818.167,763.216L790.625,760.429L764.795,752.404L741.496,739.753L721.282,723.073L704.602,702.859L691.951,679.56L683.926,653.73L681.139,626.188L683.926,598.645L691.951,572.816L704.602,549.517L721.282,529.302L741.496,512.622L764.795,499.971L790.625,491.946L818.167,489.159ZM818.167,568.912C786.556,568.912 760.892,594.577 760.892,626.188C760.892,657.799 786.556,683.463 818.167,683.463C849.778,683.463 875.442,657.799 875.442,626.188C875.442,594.577 849.778,568.912 818.167,568.912Z" style="fill:rgb(34,34,34);"/>
            </g>
        </g>
    </g>
</svg>
