<?xml version="1.0" encoding="UTF-8" standalone="no"?>
<!DOCTYPE svg PUBLIC "-//W3C//DTD SVG 1.1//EN" "http://www.w3.org/Graphics/SVG/1.1/DTD/svg11.dtd">
<svg width="100%" height="100%" viewBox="0 0 14605 12330" version="1.1" xmlns="http://www.w3.org/2000/svg" xmlns:xlink="http://www.w3.org/1999/xlink" xml:space="preserve" xmlns:serif="http://www.serif.com/" style="fill-rule:evenodd;clip-rule:evenodd;stroke-linejoin:round;stroke-miterlimit:2;">
    <g transform="matrix(3.125,0,0,3.125,0,0)">
        <g transform="matrix(1,0,0,1,-45162.8,-3065.27)">
            <g id="guesst-logo" serif:id="guesst logo">
                <g transform="matrix(-1.3621,0.786411,-0.786411,-1.3621,115376,-3078.86)">
                    <circle cx="40332.8" cy="16385.7" r="167.151" style="fill:white;"/>
                </g>
                <g transform="matrix(-1.3621,0.786411,-0.786411,-1.3621,116394,-5030.52)">
                    <circle cx="40332.8" cy="16385.7" r="167.151" style="fill:white;"/>
                </g>
                <g transform="matrix(-1.70685,0.985449,-0.985449,-1.70685,171139,41993.2)">
                    <path d="M44236.4,48341.1C44223.2,48341.1 44211,48334 44204.4,48322.6C44197.8,48311.2 44197.8,48297.1 44204.4,48285.7L44639.4,47539.4C44660.1,47503.6 44660.2,47459.5 44639.7,47423.6C44619.3,47387.7 44581.3,47365.3 44540,47364.8L44392.8,47363C44392.8,47363 44123.4,47356.3 44058.5,47354.7C44049.8,47354.5 44041.9,47349.8 44037.6,47342.3C44015,47303.2 43943.3,47179 43907.4,47116.7C43903,47109.1 43902.9,47099.8 43907.2,47092.1C43911.6,47084.5 43919.6,47079.7 43928.4,47079.5C44007,47077.8 44169.5,47074.2 44178.3,47074C44178.5,47074 44178.8,47074 44179,47074C44198.3,47074.2 44958.7,47080.5 44958.7,47080.5C44986.3,47080.5 45011.8,47095.3 45025.4,47119.3L45063.4,47186.2C45101.4,47251.6 45101.6,47332.3 45064,47397.9L44787.6,47889.9C44778.4,47906 44762.6,47917.2 44744.4,47920.7L44653.8,47938C44636.3,47941.4 44621.1,47951.9 44611.7,47967L44388.3,48323.6C44381.6,48334.5 44369.7,48341.1 44357,48341.1L44236.4,48341.1Z" style="fill:white;"/>
                </g>
                <g transform="matrix(1.70685,-0.985449,0.985449,1.70685,-76318.4,-31918.4)">
                    <path d="M44235,48340.9C44221.8,48340.9 44209.6,48333.9 44203,48322.5C44196.4,48311 44196.4,48297 44203,48285.6L44639.4,47539.4C44660.1,47503.6 44660.2,47459.5 44639.7,47423.6C44619.3,47387.7 44581.3,47365.3 44540,47364.8L44392.8,47363C44392.8,47363 44214.4,47356.7 44162.9,47354.9C44154.3,47354.6 44146.5,47349.9 44142.2,47342.4C44119.8,47303.5 44047.9,47179.1 44011.9,47116.7C44007.5,47109.1 44007.5,47099.8 44011.8,47092.1C44016.1,47084.5 44024.1,47079.7 44032.9,47079.5C44111.5,47077.8 44273.8,47074.2 44282.8,47074C44283.1,47074 44283.3,47074 44283.6,47074C44301.9,47074.2 44958.7,47080.5 44958.7,47080.5C44986.3,47080.5 45011.8,47095.3 45025.4,47119.3L45063.4,47186.2C45101.4,47251.6 45101.6,47332.3 45064,47397.9L44787.6,47889.9C44778.4,47906 44762.6,47917.2 44744.4,47920.7L44653.8,47938C44636.3,47941.4 44621.1,47951.9 44611.7,47967L44387,48323.4C44380.2,48334.3 44368.3,48340.9 44355.6,48340.9L44235,48340.9Z" style="fill:white;"/>
                </g>
            </g>
        </g>
    </g>
</svg>
